<svg width="8" height="1108" viewBox="0 0 8 1108" fill="none" xmlns="http://www.w3.org/2000/svg">
<rect width="8" height="1" fill="white" fill-opacity="0.1"/>
<rect y="9" width="8" height="1" fill="white" fill-opacity="0.1"/>
<rect y="18" width="8" height="1" fill="white" fill-opacity="0.1"/>
<rect y="27" width="8" height="1" fill="white" fill-opacity="0.1"/>
<rect y="36" width="8" height="1" fill="white" fill-opacity="0.1"/>
<rect y="45" width="8" height="1" fill="white" fill-opacity="0.1"/>
<rect y="54" width="8" height="1" fill="white" fill-opacity="0.1"/>
<rect y="63" width="8" height="1" fill="white" fill-opacity="0.1"/>
<rect y="72" width="8" height="1" fill="white" fill-opacity="0.1"/>
<rect y="81" width="8" height="1" fill="white" fill-opacity="0.1"/>
<rect y="90" width="8" height="1" fill="white" fill-opacity="0.1"/>
<rect y="99" width="8" height="1" fill="white" fill-opacity="0.1"/>
<rect y="108" width="8" height="1" fill="white" fill-opacity="0.1"/>
<rect y="117" width="8" height="1" fill="white" fill-opacity="0.1"/>
<rect y="126" width="8" height="1" fill="white" fill-opacity="0.1"/>
<rect y="135" width="8" height="1" fill="white" fill-opacity="0.1"/>
<rect y="144" width="8" height="1" fill="white" fill-opacity="0.1"/>
<rect y="153" width="8" height="1" fill="white" fill-opacity="0.1"/>
<rect y="162" width="8" height="1" fill="white" fill-opacity="0.1"/>
<rect y="171" width="8" height="1" fill="white" fill-opacity="0.1"/>
<rect y="180" width="8" height="1" fill="white" fill-opacity="0.1"/>
<rect y="189" width="8" height="1" fill="white" fill-opacity="0.1"/>
<rect y="198" width="8" height="1" fill="white" fill-opacity="0.1"/>
<rect y="207" width="8" height="1" fill="white" fill-opacity="0.1"/>
<rect y="216" width="8" height="1" fill="white" fill-opacity="0.1"/>
<rect y="225" width="8" height="1" fill="white" fill-opacity="0.1"/>
<rect y="234" width="8" height="1" fill="white" fill-opacity="0.1"/>
<rect y="243" width="8" height="1" fill="white" fill-opacity="0.1"/>
<rect y="252" width="8" height="1" fill="white" fill-opacity="0.1"/>
<rect y="261" width="8" height="1" fill="white" fill-opacity="0.1"/>
<rect y="270" width="8" height="1" fill="white" fill-opacity="0.1"/>
<rect y="279" width="8" height="1" fill="white" fill-opacity="0.1"/>
<rect y="288" width="8" height="1" fill="white" fill-opacity="0.1"/>
<rect y="297" width="8" height="1" fill="white" fill-opacity="0.1"/>
<rect y="306" width="8" height="1" fill="white" fill-opacity="0.1"/>
<rect y="315" width="8" height="1" fill="white" fill-opacity="0.1"/>
<rect y="324" width="8" height="1" fill="white" fill-opacity="0.1"/>
<rect y="333" width="8" height="1" fill="white" fill-opacity="0.1"/>
<rect y="342" width="8" height="1" fill="white" fill-opacity="0.1"/>
<rect y="351" width="8" height="1" fill="white" fill-opacity="0.1"/>
<rect y="360" width="8" height="1" fill="white" fill-opacity="0.1"/>
<rect y="369" width="8" height="1" fill="white" fill-opacity="0.1"/>
<rect y="378" width="8" height="1" fill="white" fill-opacity="0.1"/>
<rect y="387" width="8" height="1" fill="white" fill-opacity="0.1"/>
<rect y="396" width="8" height="1" fill="white" fill-opacity="0.1"/>
<rect y="405" width="8" height="1" fill="white" fill-opacity="0.1"/>
<rect y="414" width="8" height="1" fill="white" fill-opacity="0.1"/>
<rect y="423" width="8" height="1" fill="white" fill-opacity="0.1"/>
<rect y="432" width="8" height="1" fill="white" fill-opacity="0.1"/>
<rect y="441" width="8" height="1" fill="white" fill-opacity="0.1"/>
<rect y="450" width="8" height="1" fill="white" fill-opacity="0.1"/>
<rect y="459" width="8" height="1" fill="white" fill-opacity="0.1"/>
<rect y="468" width="8" height="1" fill="white" fill-opacity="0.1"/>
<rect y="477" width="8" height="1" fill="white" fill-opacity="0.1"/>
<rect y="486" width="8" height="1" fill="white" fill-opacity="0.1"/>
<rect y="495" width="8" height="1" fill="white" fill-opacity="0.1"/>
<rect y="504" width="8" height="1" fill="white" fill-opacity="0.1"/>
<rect y="513" width="8" height="1" fill="white" fill-opacity="0.1"/>
<rect y="522" width="8" height="1" fill="white" fill-opacity="0.1"/>
<rect y="531" width="8" height="1" fill="white" fill-opacity="0.1"/>
<rect y="540" width="8" height="1" fill="white" fill-opacity="0.1"/>
<rect y="549" width="8" height="1" fill="white" fill-opacity="0.1"/>
<rect y="558" width="8" height="1" fill="white" fill-opacity="0.1"/>
<rect y="567" width="8" height="1" fill="white" fill-opacity="0.1"/>
<rect y="576" width="8" height="1" fill="white" fill-opacity="0.1"/>
<rect y="585" width="8" height="1" fill="white" fill-opacity="0.1"/>
<rect y="594" width="8" height="1" fill="white" fill-opacity="0.1"/>
<rect y="603" width="8" height="1" fill="white" fill-opacity="0.1"/>
<rect y="612" width="8" height="1" fill="white" fill-opacity="0.1"/>
<rect y="621" width="8" height="1" fill="white" fill-opacity="0.1"/>
<rect y="630" width="8" height="1" fill="white" fill-opacity="0.1"/>
<rect y="639" width="8" height="1" fill="white" fill-opacity="0.1"/>
<rect y="648" width="8" height="1" fill="white" fill-opacity="0.1"/>
<rect y="657" width="8" height="1" fill="white" fill-opacity="0.1"/>
<rect y="666" width="8" height="1" fill="white" fill-opacity="0.1"/>
<rect y="675" width="8" height="1" fill="white" fill-opacity="0.1"/>
<rect y="684" width="8" height="1" fill="white" fill-opacity="0.1"/>
<rect y="693" width="8" height="1" fill="white" fill-opacity="0.1"/>
<rect y="702" width="8" height="1" fill="white" fill-opacity="0.1"/>
<rect y="711" width="8" height="1" fill="white" fill-opacity="0.1"/>
<rect y="720" width="8" height="1" fill="white" fill-opacity="0.1"/>
<rect y="729" width="8" height="1" fill="white" fill-opacity="0.1"/>
<rect y="738" width="8" height="1" fill="white" fill-opacity="0.1"/>
<rect y="747" width="8" height="1" fill="white" fill-opacity="0.1"/>
<rect y="756" width="8" height="1" fill="white" fill-opacity="0.1"/>
<rect y="765" width="8" height="1" fill="white" fill-opacity="0.1"/>
<rect y="774" width="8" height="1" fill="white" fill-opacity="0.1"/>
<rect y="783" width="8" height="1" fill="white" fill-opacity="0.1"/>
<rect y="792" width="8" height="1" fill="white" fill-opacity="0.1"/>
<rect y="801" width="8" height="1" fill="white" fill-opacity="0.1"/>
<rect y="810" width="8" height="1" fill="white" fill-opacity="0.1"/>
<rect y="819" width="8" height="1" fill="white" fill-opacity="0.1"/>
<rect y="828" width="8" height="1" fill="white" fill-opacity="0.1"/>
<rect y="837" width="8" height="1" fill="white" fill-opacity="0.1"/>
<rect y="846" width="8" height="1" fill="white" fill-opacity="0.1"/>
<rect y="855" width="8" height="1" fill="white" fill-opacity="0.1"/>
<rect y="864" width="8" height="1" fill="white" fill-opacity="0.1"/>
<rect y="873" width="8" height="1" fill="white" fill-opacity="0.1"/>
<rect y="882" width="8" height="1" fill="white" fill-opacity="0.1"/>
<rect y="891" width="8" height="1" fill="white" fill-opacity="0.1"/>
<rect y="900" width="8" height="1" fill="white" fill-opacity="0.1"/>
<rect y="909" width="8" height="1" fill="white" fill-opacity="0.1"/>
<rect y="918" width="8" height="1" fill="white" fill-opacity="0.1"/>
<rect y="927" width="8" height="1" fill="white" fill-opacity="0.1"/>
<rect y="936" width="8" height="1" fill="white" fill-opacity="0.1"/>
<rect y="945" width="8" height="1" fill="white" fill-opacity="0.1"/>
<rect y="954" width="8" height="1" fill="white" fill-opacity="0.1"/>
<rect y="963" width="8" height="1" fill="white" fill-opacity="0.1"/>
<rect y="972" width="8" height="1" fill="white" fill-opacity="0.1"/>
<rect y="981" width="8" height="1" fill="white" fill-opacity="0.1"/>
<rect y="990" width="8" height="1" fill="white" fill-opacity="0.1"/>
<rect y="999" width="8" height="1" fill="white" fill-opacity="0.1"/>
<rect y="1008" width="8" height="1" fill="white" fill-opacity="0.1"/>
<rect y="1017" width="8" height="1" fill="white" fill-opacity="0.1"/>
<rect y="1026" width="8" height="1" fill="white" fill-opacity="0.1"/>
<rect y="1035" width="8" height="1" fill="white" fill-opacity="0.1"/>
<rect y="1044" width="8" height="1" fill="white" fill-opacity="0.1"/>
<rect y="1053" width="8" height="1" fill="white" fill-opacity="0.1"/>
<rect y="1062" width="8" height="1" fill="white" fill-opacity="0.1"/>
<rect y="1071" width="8" height="1" fill="white" fill-opacity="0.1"/>
<rect y="1080" width="8" height="1" fill="white" fill-opacity="0.1"/>
<rect y="1089" width="8" height="1" fill="white" fill-opacity="0.1"/>
<rect y="1098" width="8" height="1" fill="white" fill-opacity="0.1"/>
<rect y="1107" width="8" height="1" fill="white" fill-opacity="0.1"/>
</svg>
